<svg width="1100" height="700" viewBox="0 0 1100 700" fill="none" xmlns="http://www.w3.org/2000/svg">
<rect x="12" y="12" width="1076" height="676" rx="24" fill="#F8FBFF" stroke="#E1E5EE" stroke-width="2"/>
<rect x="730" y="70" width="330" height="560" fill="#484B52"/>
<rect x="60" y="90" width="640" height="520" rx="12" fill="#EEF3F8"/>
<rect x="320" y="240" width="360" height="280" rx="14" fill="#D8EDE0" stroke="#B7D0C2" stroke-width="3"/>

<!-- Left rail -->
<rect x="84" y="124" width="180" height="460" rx="10" fill="white" stroke="#E5EBF3"/>
<rect x="104" y="148" width="150" height="42" rx="8" fill="#F3F6FB"/>
<rect x="104" y="204" width="150" height="42" rx="8" fill="#F3F6FB"/>
<rect x="104" y="260" width="150" height="42" rx="8" fill="#F3F6FB"/>
<rect x="104" y="316" width="150" height="52" rx="10" fill="#E8EEF6"/>
<rect x="104" y="384" width="150" height="42" rx="8" fill="#F3F6FB"/>
<rect x="104" y="440" width="150" height="42" rx="8" fill="#F3F6FB"/>
<rect x="104" y="496" width="150" height="42" rx="8" fill="#F3F6FB"/>

<!-- Nodes -->
<rect x="290" y="310" width="76" height="76" rx="14" fill="white" stroke="#C8D6E8" stroke-width="3"/>
<rect x="420" y="280" width="76" height="76" rx="14" fill="white" stroke="#C8D6E8" stroke-width="3"/>
<rect x="550" y="300" width="76" height="76" rx="14" fill="white" stroke="#C8D6E8" stroke-width="3"/>
<rect x="420" y="400" width="76" height="76" rx="14" fill="white" stroke="#C8D6E8" stroke-width="3"/>
<rect x="550" y="420" width="76" height="76" rx="14" fill="white" stroke="#C8D6E8" stroke-width="3"/>
<rect x="290" y="430" width="76" height="76" rx="14" fill="white" stroke="#C8D6E8" stroke-width="3"/>

<!-- Connector floating card -->
<rect x="360" y="360" width="220" height="70" rx="12" fill="white" stroke="#E6EAF0"/>
<rect x="380" y="378" width="48" height="48" rx="12" fill="#E8F3FF" stroke="#D1E3FB"/>
<rect x="440" y="390" width="120" height="10" rx="5" fill="#CDD7E6"/>
<rect x="440" y="408" width="90" height="10" rx="5" fill="#DCE3EE"/>

<!-- Node icons -->
<circle cx="328" cy="348" r="18" fill="#E8F3FF" stroke="#C5DBF7" stroke-width="3"/>
<rect x="446" y="306" width="24" height="36" rx="6" fill="#4B87C7"/>
<circle cx="589" cy="338" r="18" fill="#E8F3FF" stroke="#C5DBF7" stroke-width="3"/>
<rect x="446" y="426" width="24" height="24" rx="5" fill="#49A4FF"/>
<rect x="576" y="448" width="24" height="16" rx="4" fill="#B7C7D8"/>
<circle cx="328" cy="468" r="18" fill="#E8F3FF" stroke="#C5DBF7" stroke-width="3"/>

<!-- Lines -->
<line x1="366" y1="348" x2="420" y2="318" stroke="#B7C7D8" stroke-width="4" marker-end="url(#arrow)"/>
<line x1="496" y1="318" x2="550" y2="334" stroke="#B7C7D8" stroke-width="4" marker-end="url(#arrow)"/>
<line x1="496" y1="366" x2="550" y2="430" stroke="#B7C7D8" stroke-width="4" marker-end="url(#arrow)"/>
<line x1="366" y1="462" x2="420" y2="438" stroke="#B7C7D8" stroke-width="4" marker-end="url(#arrow)"/>
<line x1="496" y1="438" x2="550" y2="344" stroke="#B7C7D8" stroke-width="4" marker-end="url(#arrow)"/>

<!-- Right legend bars -->
<rect x="772" y="130" width="220" height="14" rx="7" fill="#9AD7A4"/>
<rect x="772" y="158" width="190" height="14" rx="7" fill="#EAB54F"/>
<rect x="772" y="186" width="200" height="14" rx="7" fill="#5BC0BE"/>
<rect x="772" y="214" width="180" height="14" rx="7" fill="#2C84D4"/>
<rect x="772" y="242" width="160" height="14" rx="7" fill="#E6E8EC"/>
<rect x="772" y="270" width="140" height="14" rx="7" fill="#0F73B8"/>

<defs>
<marker id="arrow" markerWidth="10" markerHeight="10" refX="5" refY="5" orient="auto">
  <path d="M0 0 L10 5 L0 10 z" fill="#B7C7D8"/>
</marker>
</defs>
</svg>
